<svg xmlns="http://www.w3.org/2000/svg" viewBox="0 0 1200 440" role="img" aria-labelledby="title desc">
  <title id="title">Cyber Actor Atlas banner logo</title>
  <desc id="desc">Dark banner logo with a glowing globe, colored nodes, and the Cyber Actor Atlas wordmark.</desc>
  <defs>
    <linearGradient id="bg" x1="0%" y1="0%" x2="100%" y2="100%">
      <stop offset="0%" stop-color="#060b17"/>
      <stop offset="55%" stop-color="#0a1020"/>
      <stop offset="100%" stop-color="#0e1830"/>
    </linearGradient>
    <radialGradient id="glow" cx="38%" cy="34%" r="70%">
      <stop offset="0%" stop-color="#12253f"/>
      <stop offset="52%" stop-color="#0b1730"/>
      <stop offset="100%" stop-color="#05101f"/>
    </radialGradient>
    <radialGradient id="blueGlow" cx="50%" cy="50%" r="50%">
      <stop offset="0%" stop-color="#57c7ff" stop-opacity="0.95"/>
      <stop offset="100%" stop-color="#57c7ff" stop-opacity="0"/>
    </radialGradient>
    <radialGradient id="redGlow" cx="50%" cy="50%" r="50%">
      <stop offset="0%" stop-color="#ff6b5e" stop-opacity="0.95"/>
      <stop offset="100%" stop-color="#ff6b5e" stop-opacity="0"/>
    </radialGradient>
    <radialGradient id="orangeGlow" cx="50%" cy="50%" r="50%">
      <stop offset="0%" stop-color="#ff9a62" stop-opacity="0.9"/>
      <stop offset="100%" stop-color="#ff9a62" stop-opacity="0"/>
    </radialGradient>
    <clipPath id="globeClip">
      <circle cx="168" cy="220" r="128"/>
    </clipPath>
    <filter id="softGlow" x="-40%" y="-40%" width="180%" height="180%">
      <feGaussianBlur stdDeviation="5" result="blur"/>
      <feMerge>
        <feMergeNode in="blur"/>
        <feMergeNode in="SourceGraphic"/>
      </feMerge>
    </filter>
    <filter id="textShadow" x="-20%" y="-20%" width="140%" height="140%">
      <feDropShadow dx="0" dy="3" stdDeviation="8" flood-color="#000814" flood-opacity="0.6"/>
    </filter>
  </defs>

  <rect width="1200" height="440" rx="18" fill="url(#bg)"/>
  <rect x="1.5" y="1.5" width="1197" height="437" rx="16.5" fill="none" stroke="#63c7ff" stroke-opacity="0.12" stroke-width="3"/>

  <g opacity="0.05" stroke="#ffffff" stroke-width="1">
    <path d="M0 70H1200"/>
    <path d="M0 140H1200"/>
    <path d="M0 210H1200"/>
    <path d="M0 280H1200"/>
    <path d="M0 350H1200"/>
    <path d="M110 0V440"/>
    <path d="M220 0V440"/>
    <path d="M330 0V440"/>
    <path d="M440 0V440"/>
    <path d="M550 0V440"/>
    <path d="M660 0V440"/>
    <path d="M770 0V440"/>
    <path d="M880 0V440"/>
    <path d="M990 0V440"/>
    <path d="M1100 0V440"/>
  </g>

  <g transform="translate(10 0)">
    <g filter="url(#softGlow)">
    <circle cx="168" cy="220" r="142" fill="url(#glow)" opacity="0.95"/>
    <circle cx="168" cy="220" r="128" fill="none" stroke="#57c7ff" stroke-width="2.2" opacity="0.72"/>
    <circle cx="168" cy="220" r="128" fill="none" stroke="#57c7ff" stroke-opacity="0.06" stroke-width="20"/>
    </g>

    <g clip-path="url(#globeClip)" opacity="0.34" fill="none" stroke="#57c7ff" stroke-width="1.2">
      <ellipse cx="168" cy="220" rx="128" ry="28"/>
      <ellipse cx="168" cy="220" rx="128" ry="58"/>
      <ellipse cx="168" cy="220" rx="128" ry="88"/>
      <ellipse cx="168" cy="220" rx="128" ry="118"/>
      <ellipse cx="168" cy="220" rx="28" ry="128"/>
      <ellipse cx="168" cy="220" rx="56" ry="128"/>
      <ellipse cx="168" cy="220" rx="86" ry="128"/>
      <ellipse cx="168" cy="220" rx="108" ry="128"/>
      <path d="M40 220H296"/>
      <path d="M168 92V348"/>
    </g>

    <g clip-path="url(#globeClip)" opacity="0.5" fill="none" stroke="#57c7ff" stroke-width="1.4">
      <path d="M78 126C118 146 218 146 258 126"/>
      <path d="M70 170C120 184 216 184 266 170"/>
      <path d="M68 270C120 254 216 254 268 270"/>
      <path d="M80 314C120 298 216 298 256 314"/>
    </g>

    <g filter="url(#softGlow)">
      <circle cx="128" cy="186" r="19" fill="#57c7ff"/>
      <circle cx="128" cy="186" r="34" fill="url(#blueGlow)" opacity="0.45"/>
      <circle cx="152" cy="152" r="24" fill="#ff5b57"/>
      <circle cx="152" cy="152" r="42" fill="url(#redGlow)" opacity="0.4"/>
      <circle cx="212" cy="162" r="29" fill="#ff5b57"/>
      <circle cx="212" cy="162" r="48" fill="url(#redGlow)" opacity="0.38"/>
      <circle cx="235" cy="218" r="16" fill="#ff8a5c"/>
      <circle cx="235" cy="218" r="30" fill="url(#orangeGlow)" opacity="0.42"/>
      <circle cx="185" cy="246" r="22" fill="#ff8a5c"/>
      <circle cx="185" cy="246" r="40" fill="url(#orangeGlow)" opacity="0.35"/>
    </g>

    <g opacity="0.55" stroke-linecap="round" stroke-dasharray="5 8" fill="none">
      <path d="M128 186C150 179 174 168 212 162" stroke="#57c7ff" stroke-width="1.6"/>
      <path d="M152 152C170 173 176 198 185 246" stroke="#ff5b57" stroke-width="1.3"/>
      <path d="M128 186C145 205 164 226 235 218" stroke="#57c7ff" stroke-width="1.2"/>
    </g>

    <circle cx="168" cy="220" r="128" fill="none" stroke="#57c7ff" stroke-opacity="0.14" stroke-width="1.2"/>
    <circle cx="168" cy="220" r="2.6" fill="#dff6ff"/>
  </g>

  <g filter="url(#textShadow)">
    <text x="354" y="200" font-family="Avenir Next, Segoe UI, Helvetica Neue, Arial, sans-serif" font-size="72" font-weight="800" letter-spacing="0.4">
      <tspan fill="#edf6ff">CYBER</tspan>
      <tspan dx="18" fill="#57c7ff">ACTOR</tspan>
      <tspan dx="18" fill="#8fb4d8" font-size="72" font-weight="600" letter-spacing="0.4">ATLAS</tspan>
    </text>
  </g>

  <path d="M353 278H1050" stroke="#63c7ff" stroke-width="1.6" stroke-opacity="0.68"/>
  <text x="354" y="344" fill="#6b86a8" font-family="Avenir Next, Segoe UI, Helvetica Neue, Arial, sans-serif" font-size="20" font-weight="600" letter-spacing="4.5">OPEN-SOURCE   •   GEOGRAPHIC THREAT INTELLIGENCE</text>

  <g fill="none" stroke="#57c7ff" stroke-width="3" stroke-linecap="round" stroke-linejoin="round" opacity="0.85">
    <path d="M22 22H48"/>
    <path d="M22 22V48"/>
    <path d="M1178 22H1152"/>
    <path d="M1178 22V48"/>
    <path d="M22 418H48"/>
    <path d="M22 418V392"/>
    <path d="M1178 418H1152"/>
    <path d="M1178 418V392"/>
  </g>

  <circle cx="1010" cy="98" r="2.3" fill="#57c7ff" opacity="0.75"/>
  <circle cx="1040" cy="128" r="1.8" fill="#ff8a5c" opacity="0.7"/>
  <circle cx="1075" cy="92" r="1.6" fill="#edf6ff" opacity="0.7"/>
  <circle cx="990" cy="110" r="1.4" fill="#57c7ff" opacity="0.5"/>
</svg>
